<svg width="2897" height="863" viewBox="0 0 2897 863" fill="none" xmlns="http://www.w3.org/2000/svg">
<path d="M559 223L112 423L559 623V723L3.72529e-07 473V373L559 123V223ZM1941.19 863H1861.19L2187.19 -4.95911e-05H2267.19L1941.19 863ZM2896.57 373V473L2337.57 723V623L2784.57 423L2337.57 223V123L2896.57 373Z" fill="white"/>
<path d="M636.719 -4.95911e-05H949.719C960.385 -4.95911e-05 969.052 3.66663 975.719 11C982.385 18.3333 985.719 28 985.719 40V723H880.719C858.052 723 843.052 719.333 835.719 712C829.052 704.667 825.719 689.333 825.719 666V125H665.719C646.385 125 636.719 109 636.719 77V-4.95911e-05ZM1025.72 -4.95911e-05H1185.72C1205.05 -4.95911e-05 1214.72 16 1214.72 48V125H1025.72V-4.95911e-05ZM1454.05 723H1349.05C1326.38 723 1311.38 719.333 1304.05 712C1297.38 704.667 1294.05 689.333 1294.05 666V40C1294.05 28 1297.38 18.3333 1304.05 11C1310.71 3.66663 1319.38 -4.95911e-05 1330.05 -4.95911e-05H1454.05V723ZM1494.05 -4.95911e-05H1621.05C1659.71 -4.95911e-05 1690.05 2.99995 1712.05 8.99995C1734.71 15 1751.71 27 1763.05 45C1774.38 62.3333 1781.38 82 1784.05 104C1787.38 125.333 1789.05 155.667 1789.05 195C1789.05 234.333 1787.38 264.333 1784.05 285C1781.38 305.667 1774.38 325 1763.05 343C1752.38 361 1735.38 373.667 1712.05 381C1689.38 388.333 1659.05 392 1621.05 392H1494.05V297H1568.05C1585.38 297 1596.38 294.667 1601.05 290C1606.38 285.333 1609.05 278 1609.05 268V125C1609.05 114.333 1606.38 106.667 1601.05 102C1596.38 97.3333 1585.38 95 1568.05 95H1494.05V-4.95911e-05ZM1590.05 423H1714.05C1734.05 423 1748.38 428.667 1757.05 440C1765.71 450.667 1770.05 468.333 1770.05 493V723H1626.05C1615.38 723 1606.71 719.333 1600.05 712C1593.38 704.667 1590.05 695 1590.05 683V423Z" fill="#19BE3D"/>
</svg>
