<svg width="580" height="173" viewBox="0 0 580 173" fill="none" xmlns="http://www.w3.org/2000/svg">
<path d="M111.8 45L22.4 85L111.8 125V145L7.45058e-08 95V75L111.8 25V45ZM388.238 173H372.238L437.438 0.39999H453.438L388.238 173ZM579.314 75V95L467.514 145V125L556.914 85L467.514 45V25L579.314 75Z" fill="white"/>
<path d="M127.344 0.39999H189.944C192.077 0.39999 193.81 1.13333 195.144 2.6C196.477 4.06666 197.144 5.99999 197.144 8.39999V145H176.144C171.61 145 168.61 144.267 167.144 142.8C165.81 141.333 165.144 138.267 165.144 133.6V25.4H133.144C129.277 25.4 127.344 22.2 127.344 15.8V0.39999ZM205.144 0.39999H237.144C241.01 0.39999 242.944 3.59999 242.944 10V25.4H205.144V0.39999ZM290.809 145H269.809C265.276 145 262.276 144.267 260.809 142.8C259.476 141.333 258.809 138.267 258.809 133.6V8.39999C258.809 5.99999 259.476 4.06666 260.809 2.6C262.143 1.13333 263.876 0.39999 266.009 0.39999H290.809V145ZM298.809 0.39999H324.209C331.943 0.39999 338.009 0.99999 342.409 2.19999C346.943 3.39999 350.343 5.79999 352.609 9.39999C354.876 12.8667 356.276 16.8 356.809 21.2C357.476 25.4667 357.809 31.5333 357.809 39.4C357.809 47.2667 357.476 53.2667 356.809 57.4C356.276 61.5333 354.876 65.4 352.609 69C350.476 72.6 347.076 75.1333 342.409 76.6C337.876 78.0667 331.809 78.8 324.209 78.8H298.809V59.8H313.609C317.076 59.8 319.276 59.3333 320.209 58.4C321.276 57.4667 321.809 56 321.809 54V25.4C321.809 23.2667 321.276 21.7333 320.209 20.8C319.276 19.8667 317.076 19.4 313.609 19.4H298.809V0.39999ZM318.009 85H342.809C346.809 85 349.676 86.1333 351.409 88.4C353.143 90.5333 354.009 94.0667 354.009 99V145H325.209C323.076 145 321.343 144.267 320.009 142.8C318.676 141.333 318.009 139.4 318.009 137V85Z" fill="#19BE3D"/>
</svg>
